<?xml version="1.0" encoding="UTF-8"?>
<svg id="Layer_2" data-name="Layer 2" xmlns="http://www.w3.org/2000/svg" viewBox="0 0 225.21 77.11">
  <defs>
    
  </defs>
  <g id="Layer_1-2" data-name="Layer 1">
    <g>
      <path class="cls-5" d="M54.93,69.87c0-2.53,2.06-4.3,4.88-4.3s4.9,1.77,4.9,4.3-2.06,4.32-4.9,4.32-4.88-1.79-4.88-4.32ZM59.81,73.34c2.36,0,3.88-1.55,3.88-3.47s-1.51-3.45-3.88-3.45-3.86,1.55-3.86,3.45,1.51,3.47,3.86,3.47Z"></path>
      <path class="cls-5" d="M71.62,72.62v4.49h-.97v-11.34h.97v1.36c.76-.87,2.02-1.56,3.57-1.56,2.58,0,4.56,1.58,4.56,4.3s-1.97,4.32-4.56,4.32c-1.55,0-2.8-.7-3.57-1.56ZM75.06,73.34c2.21,0,3.67-1.39,3.67-3.47s-1.46-3.45-3.67-3.45c-1.48,0-2.79.7-3.43,1.53v3.86c.65.82,1.96,1.53,3.43,1.53Z"></path>
      <path class="cls-5" d="M90.15,66.42c-1.34,0-2.77.66-3.48,1.43v6.14h-.97v-11.34h.97v4.45c.76-.73,2.31-1.53,3.74-1.53,2.16,0,3.5.9,3.5,3.18v5.24h-.97v-5.18c0-1.9-1.14-2.38-2.79-2.38Z"></path>
      <path class="cls-5" d="M101.19,71.86v-5.24h-2.16v-.85h2.16v-2.24h.97v2.24h2.74v.85h-2.74v5.13c0,1.02.53,1.58,1.53,1.58.56,0,1.07-.15,1.38-.36l.32.73c-.41.27-.97.48-1.85.48-1.58,0-2.35-.92-2.35-2.33Z"></path>
      <path class="cls-5" d="M114.8,66.42c-1.34,0-2.77.66-3.48,1.43v6.14h-.97v-11.34h.97v4.45c.76-.73,2.31-1.53,3.74-1.53,2.16,0,3.5.9,3.5,3.18v5.24h-.97v-5.18c0-1.9-1.14-2.38-2.79-2.38Z"></path>
      <path class="cls-5" d="M129.01,66.42c-1.39,0-2.45.41-3.38,1.34l-.56-.63c1.02-1,2.24-1.56,3.98-1.56,1.96,0,3.83.87,3.83,2.91v5.51h-.97v-1c-.92.75-2.09,1.21-3.66,1.21-1.77,0-3.65-.88-3.65-2.72s1.87-2.74,3.65-2.74c1.56,0,2.74.44,3.66,1.21v-1.44c0-1.33-1.34-2.07-2.89-2.07ZM128.5,73.44c1.43,0,2.63-.42,3.4-1.12v-1.72c-.75-.7-1.97-1.1-3.4-1.1-1.7,0-2.89.68-2.89,1.97s1.19,1.97,2.89,1.97Z"></path>
      <path class="cls-5" d="M139.35,62.64h.97v11.34h-.97v-11.34Z"></path>
      <path class="cls-5" d="M157.06,66.42c-1.02,0-2.29.56-2.97,1.43v6.14h-.97v-5.37c0-1.33-.65-2.19-2.35-2.19-1.02,0-2.31.65-2.99,1.43v6.14h-.97v-8.21h.97v1.31c.44-.48,1.8-1.51,3.31-1.51,1.65,0,2.52.8,2.82,1.61.68-.83,2.04-1.61,3.48-1.61,2.01,0,2.99,1.02,2.99,2.92v5.49h-.97v-5.37c0-1.33-.63-2.19-2.36-2.19Z"></path>
      <path class="cls-5" d="M167.37,62.98c.37,0,.7.32.7.71s-.32.71-.7.71-.71-.32-.71-.71.32-.71.71-.71ZM166.87,65.77h.97v8.21h-.97v-8.21Z"></path>
      <path class="cls-5" d="M173.78,69.87c0-2.4,2.04-4.3,4.95-4.3,1.9,0,3.18.66,4.01,1.65l-.63.61c-.82-1-2.07-1.41-3.37-1.41-2.35,0-3.94,1.38-3.94,3.45s1.6,3.47,3.94,3.47c1.29,0,2.55-.41,3.37-1.41l.63.59c-.83.97-2.11,1.67-4.01,1.67-2.91,0-4.95-1.92-4.95-4.32Z"></path>
      <path class="cls-5" d="M187.48,72.76l.56-.73c.85.78,2.01,1.33,3.57,1.33,1.9,0,2.84-.78,2.84-1.65,0-1.12-1.46-1.33-3.04-1.55-2.29-.31-3.77-.65-3.77-2.24,0-1.22,1.29-2.35,3.71-2.35,1.89,0,3.18.66,3.88,1.38l-.54.66c-.7-.73-1.84-1.21-3.35-1.21-1.72,0-2.65.66-2.65,1.46,0,.97,1.33,1.12,2.82,1.34,1.87.25,3.98.53,3.98,2.46,0,1.26-1.17,2.52-3.89,2.52-1.7,0-3.04-.49-4.1-1.43Z"></path>
    </g>
    <path d="M200.05,65.75h-.68v-.24h1.64v.24h-.69v2.11h-.26v-2.11ZM201.76,65.51l.83,1.32.83-1.32h.27v2.36h-.26v-1.91l-.85,1.33-.85-1.33v1.91h-.26v-2.36h.27Z"></path>
    <g>
      <path class="cls-1" d="M100.49,40.1c-.18-.67-.39-1.33-.68-1.95-.74-1.59-1.77-3.01-3.09-4.23-1.31-1.22-2.86-2.19-4.59-2.88-1.74-.69-3.63-1.04-5.63-1.04h-7.82c-2,0-3.89.35-5.63,1.04-1.73.69-3.28,1.66-4.59,2.88-1.31,1.22-2.35,2.64-3.09,4.23-.29.63-.51,1.28-.68,1.95-.27,1.03-.42,2.1-.42,3.2s.15,2.18.42,3.2c.18.67.39,1.33.68,1.95.74,1.59,1.77,3.01,3.09,4.23,1.31,1.22,2.86,2.19,4.59,2.88,1.74.69,3.63,1.04,5.63,1.04h15.28v-5.68h-15.28c-1.51,0-2.9-.35-4.12-1.04-1.24-.7-2.24-1.63-2.99-2.78-.13-.2-.23-.4-.33-.61h29.25c.27-1.03.42-2.09.42-3.2s-.15-2.18-.42-3.2ZM71.24,40.1c.11-.2.21-.41.33-.61.75-1.15,1.75-2.08,2.99-2.78,1.22-.69,2.61-1.04,4.12-1.04h7.82c1.51,0,2.91.35,4.15,1.04,1.25.7,2.25,1.63,2.98,2.77.13.2.23.4.33.61h-22.72Z"></path>
      <path class="cls-1" d="M179.6,33.9c-1.31-1.22-2.85-2.18-4.58-2.87-1.73-.69-3.62-1.04-5.61-1.04h-7.79c-1.99,0-3.88.35-5.61,1.04-1.73.69-3.27,1.65-4.58,2.87-1.31,1.22-2.34,2.63-3.08,4.22-.73,1.59-1.11,3.32-1.11,5.14s.37,3.55,1.11,5.14c.73,1.58,1.77,3,3.08,4.22,1.31,1.22,2.85,2.18,4.58,2.87,1.73.69,3.62,1.04,5.61,1.04h7.79c1.99,0,3.88-.35,5.61-1.04,1.73-.69,3.27-1.65,4.58-2.87,1.31-1.21,2.34-2.63,3.08-4.22.73-1.59,1.11-3.31,1.11-5.14s-.37-3.55-1.11-5.14c-.73-1.58-1.77-3-3.08-4.22ZM169.41,50.86h-7.79c-1.51,0-2.89-.35-4.11-1.04-1.23-.7-2.23-1.63-2.98-2.77-.74-1.14-1.11-2.41-1.11-3.8s.37-2.66,1.11-3.8c.74-1.14,1.74-2.08,2.98-2.77,1.22-.69,2.6-1.04,4.11-1.04h7.79c1.51,0,2.9.35,4.14,1.04,1.24.69,2.24,1.62,2.97,2.76.72,1.14,1.09,2.42,1.09,3.8s-.37,2.66-1.09,3.8c-.73,1.14-1.72,2.07-2.97,2.76-1.24.69-2.63,1.04-4.14,1.04Z"></path>
      <polygon class="cls-1" points="47.89 43.18 61.63 30.18 61.83 29.99 53.34 29.99 43.65 39.16 33.96 29.99 25.46 29.99 39.4 43.18 25.38 56.44 25.19 56.63 33.68 56.63 43.65 47.2 53.61 56.63 62.1 56.63 47.89 43.18"></polygon>
      <path class="cls-1" d="M142.32,43.31c0-.63-.06-1.25-.15-1.86v3.72c.09-.61.15-1.23.15-1.86Z"></path>
      <path class="cls-1" d="M141.39,38.14c-.74-1.59-1.77-3.01-3.09-4.23-.72-.67-1.51-1.25-2.36-1.76-.7-.42-1.44-.8-2.23-1.11-1.74-.69-3.63-1.04-5.63-1.04h-7.81c-2,0-3.89.35-5.63,1.04-.84.34-1.63.74-2.38,1.2v-2.24h-6.4v26.61h6.4v-14.99c.18-.75.47-1.46.9-2.13.74-1.15,1.75-2.08,2.98-2.78,1.22-.69,2.61-1.04,4.12-1.04h7.81c1.51,0,2.91.35,4.15,1.04,1.25.69,2.25,1.63,2.98,2.77.31.5.55,1.02.73,1.57v15.55h6.4v-15.18c-.17-1.14-.48-2.25-.96-3.28Z"></path>
      <path class="cls-1" d="M224.25,38.14c-.74-1.59-1.77-3.01-3.09-4.23-.72-.67-1.51-1.25-2.36-1.76-.7-.42-1.44-.8-2.23-1.11-1.74-.69-3.63-1.04-5.63-1.04h-7.81c-2,0-3.89.35-5.63,1.04-.84.34-1.63.74-2.38,1.2v-2.24h-6.4v26.61h6.4v-14.99c.18-.75.47-1.46.9-2.13.74-1.15,1.75-2.08,2.98-2.78,1.22-.69,2.61-1.04,4.12-1.04h7.81c1.51,0,2.91.35,4.15,1.04,1.25.69,2.25,1.63,2.98,2.77.31.5.55,1.02.73,1.57v15.55h6.4v-15.18c-.17-1.14-.48-2.25-.96-3.28Z"></path>
    </g>
    <g>
      <circle class="cls-6" cx="10.1" cy="10.52" r="4.97"></circle>
      <circle class="cls-4" cx="37.88" cy="10.04" r="3.99"></circle>
      <circle class="cls-4" cx="10.57" cy="38.3" r="3.99"></circle>
      <circle class="cls-2" cx="43.86" cy="23.84" r="3.63"></circle>
      <circle class="cls-2" cx="24.55" cy="43.81" r="3.63"></circle>
      <circle class="cls-3" cx="23.93" cy="4.57" r="4.57"></circle>
      <circle class="cls-3" cx="4.57" cy="24.51" r="4.57"></circle>
    </g>
  </g>
</svg>